<?xml version="1.0" standalone="no"?> <!DOCTYPE svg PUBLIC "-//W3C//DTD SVG 1.0//EN" "http://www.w3.org/TR/2001/REC-SVG-20010904/DTD/svg10.dtd" > <svg xmlns="http://www.w3.org/2000/svg" width="100%" height="100%">
<defs >
<font id="test" horiz-adv-x="684" ><font-face
    font-family="Abaddon?"
    units-per-em="1000"
    panose-1="0 0 4 0 0 0 0 0 0 0"
    ascent="831"
    descent="-200"
    alphabetic="0" />
<missing-glyph horiz-adv-x="500" d="M63 0V800H438V0H63ZM125 63H375V738H125V63Z" />
<glyph unicode=" " glyph-name="space" horiz-adv-x="500" />
<glyph unicode="A" glyph-name="A" horiz-adv-x="587" d="M572 800L569 796Q526 781 524 693L514 148Q512 54 540 41Q548 38 562 28H343L344 35Q358 36 364 41Q388 60 394 109Q397 149 399 188Q402 201 404 227L408 547Q400 547 371 548H315Q213 548 200 527Q205
557 234 602Q260 593 382 593Q413 593 413 644V666Q412 680 412 685Q412 733 399 749Q271 745 181 589Q103 452 103 313Q103 146 215 -23Q215 -24 222 -41Q172 -8 116 70Q63 145 43 206Q37 223 28 290T18 378Q18 488 43 560Q49 579 100 664Q148 746 148 749Q148
785 101 792L100 800H572Z" />
<glyph unicode="B" glyph-name="B" horiz-adv-x="581" d="M572 315Q572 176 491 117Q436 76 283 46Q194 29 133 30L13 34Q63 48 63 91L64 542Q65 662 51 681T19 700Q15 700 11 698Q155 811 369 811Q437 811 488 761Q492 757 516 714T541 667V653Q539 655 533 655Q520
655 460 623T393 578Q511 521 549 413Q553 402 572 315ZM501 251Q501 342 410 423Q336 489 235 524Q237 530 272 555Q333 597 353 613Q393 644 426 682Q406 721 392 732Q373 748 333 748Q269 748 228 714Q183 677 182 615L178 141Q177 84 188 76Q232 81 277 87Q330
94 365 104Q451 128 489 217Q501 244 501 251Z" />
<glyph unicode="C" glyph-name="C" horiz-adv-x="540" d="M528 815Q521 764 464 669H458Q453 713 418 740T337 767Q250 767 192 650Q145 553 145 456Q145 308 235 180Q328 49 468 9L474 2Q363 3 255 73Q152 139 92 238Q86 253 73 282Q64 294 51 321Q17 413 17
537Q17 589 57 675T98 757Q98 772 81 780T47 788V801H493Q507 801 528 815Z" />
<glyph unicode="D" glyph-name="D" horiz-adv-x="676" d="M652 525Q652 418 598 315Q593 300 579 271Q520 177 387 103T144 28H10V39L36 49Q49 54 55 70Q64 94 65 139L72 583L64 671Q42 698 11 698Q72 746 160 778T324 810Q452 810 540 775Q614 744 651 698Q632
697 625 681Q652 585 652 525ZM525 480Q526 482 526 488Q526 592 489 664Q443 755 349 755Q258 755 222 719T186 591V312Q185 235 182 81Q181 56 209 56Q225 56 281 84Q390 139 457 249T525 480Z" />
<glyph unicode="E" glyph-name="E" horiz-adv-x="540" d="M528 815Q521 764 464 669H458Q453 713 418 740T337 767Q294 767 253 731Q218 701 196 657T173 608Q173 600 179 596H402Q383 565 346 521Q339 550 281 550Q274 550 262 549T243 548Q175 548 168 544Q146
535 146 481Q146 320 229 190Q317 52 468 9L474 2Q363 4 255 73Q153 138 92 238Q86 253 73 282Q64 294 51 321Q17 415 17 537Q17 589 57 675T98 757Q98 772 81 780T47 788V801H493Q507 801 528 815Z" />
<glyph unicode="F" glyph-name="F" horiz-adv-x="556" d="M542 794Q531 770 507 734Q477 689 469 675L463 676Q440 762 342 762Q267 762 239 723Q215 690 215 612Q215 596 228 595L352 593Q364 593 417 597Q408 568 372 515Q373 522 366 532T351 543H222Q214 538
213 514L209 100Q208 74 222 54T261 35V25H40V35Q77 43 88 77Q93 95 93 145Q93 191 96 283T99 423L97 681Q96 726 75 753Q59 773 16 797L459 796Q477 796 542 803V794Z" />
<glyph unicode="G" glyph-name="G" horiz-adv-x="589" d="M576 581Q571 576 553 564Q539 555 535 541Q522 499 522 431Q522 409 524 364T525 297Q525 272 522 207Q520 149 520 116Q520 76 524 62Q533 33 562 28V20Q555 15 536 15Q522 15 494 19T452 23Q287 23
153 180Q25 331 25 499Q25 567 59 656T93 749Q93 777 38 799H53H517Q526 799 568 815Q553 749 483 653V659Q483 687 461 718T412 754Q400 762 394 762H335Q328 762 304 751T271 734Q150 647 150 477Q150 357 211 238Q278 104 381 70H396L399 74Q404 117 404 272Q404
281 406 300T409 330V505Q409 533 392 559Q360 576 354 575V588H568L576 581ZM587 22V33V22Z" />
<glyph unicode="H" glyph-name="H" horiz-adv-x="593" d="M580 799L579 793H576Q548 793 535 747Q526 716 526 677L522 86Q522 55 543 42Q569 26 570 24H351L379 45Q403 66 403 107V546H183V79Q183 65 196 50T223 35L231 24H12Q13 24 34 37Q63 56 64 114Q72 655
72 641Q72 695 59 757Q57 769 42 780Q20 798 19 799H241L236 792H233Q210 792 197 745Q187 710 187 679V598L410 600Q408 614 407 634Q406 715 404 728Q395 780 358 799H580Z" />
<glyph unicode="I" glyph-name="I" horiz-adv-x="250" d="M238 800Q220 791 214 786Q201 776 198 765Q184 707 184 673L181 87Q180 68 195 51T228 25H10L31 38Q60 57 61 115Q69 652 69 631Q69 701 56 758Q53 770 39 781Q17 799 16 800H238Z" />
<glyph unicode="J" glyph-name="J" horiz-adv-x="484" d="M442 141Q441 81 460 65Q425 66 346 31T221 -5Q217 -5 209 -3T196 -1Q149 -1 84 41Q13 87 15 130V132Q85 185 135 219Q117 192 117 149Q117 105 148 71T224 37Q325 37 325 157L328 607Q328 625 324 660T320
714Q320 754 308 768L270 799H492Q462 783 453 763Q450 745 446 709L442 141Z" />
<glyph unicode="K" glyph-name="K" horiz-adv-x="598" d="M582 273Q582 79 395 -45Q511 104 511 209Q511 294 417 401Q320 510 236 510Q214 510 198 497T181 462L179 192Q178 81 193 55Q200 44 214 38T229 27H8V35Q49 53 59 79Q64 94 65 149L67 720Q67 753 55
765L19 791L21 797H234V786Q183 777 183 684Q183 680 185 631Q186 599 183 579Q190 573 195 573Q233 573 303 643T373 750Q373 767 360 774T332 788V799L542 800Q505 780 456 730L379 647Q351 627 302 579Q331 579 373 555T428 529Q481 487 505 460Q542 420 559
371Q563 359 582 273Z" />
<glyph unicode="L" glyph-name="L" horiz-adv-x="517" d="M494 189Q494 171 405 -3H392L399 1Q394 10 380 22Q352 33 182 35H9Q72 56 74 162Q81 611 81 622Q81 762 51 779Q40 784 23 800H248Q195 767 194 682L187 203Q186 139 201 109Q222 68 281 68Q342 68 403
109Q457 145 494 201V189Z" />
<glyph unicode="M" glyph-name="M" horiz-adv-x="668" d="M652 799L650 791Q599 787 598 672L591 143Q590 107 596 79Q606 33 631 37L638 30H420Q454 57 461 66Q473 84 474 121L485 603Q485 626 478 657Q469 657 390 545L298 410L140 657L129 651V646Q129 624
126 583T122 521Q117 121 117 147Q117 44 159 43V34H26Q38 38 59 53Q76 73 77 155Q85 688 85 677Q85 742 36 742Q28 742 9 739Q49 770 170 821L336 567H345Q412 651 489 793Q493 800 500 800Q515 800 576 799H652Z" />
<glyph unicode="N" glyph-name="N" horiz-adv-x="569" d="M553 789Q503 780 503 735V355Q503 251 470 155Q432 43 362 -14Q451 125 451 276Q451 396 366 503Q287 604 170 652Q138 665 140 665Q124 665 124 586Q123 532 121 369Q120 233 120 151Q120 89 133 61Q137
54 151 46T167 33H30Q32 36 51 46Q67 55 70 65Q79 93 80 186V314L85 664Q85 685 60 693Q43 699 18 697Q103 816 124 816Q123 816 144 807Q337 727 450 573H460V714Q460 746 452 759T417 789L419 797H548L553 789Z" />
<glyph unicode="O" glyph-name="O" horiz-adv-x="669" d="M651 698Q624 697 616 683T602 597L596 504Q583 404 537 294Q493 189 431 103Q420 87 376 45Q329 -1 320 -1Q308 -1 253 67Q203 128 191 151Q165 197 140 265L100 382Q81 437 74 525L64 671Q42 698 11
698Q72 746 160 778T324 810Q414 810 455 802Q489 795 540 775Q545 772 578 754T614 735Q622 735 651 698ZM477 520Q477 615 452 678Q417 766 338 766Q258 766 215 707Q184 641 184 528Q184 397 199 313Q217 216 261 128Q271 108 289 83Q312 50 323 50Q332 50 358
77Q382 100 390 113Q443 196 463 309Q477 391 477 520Z" />
<glyph unicode="P" glyph-name="P" horiz-adv-x="604" d="M596 699Q586 687 559 663Q513 626 417 556Q394 553 322 520Q247 487 219 481Q221 489 276 526L345 571Q355 579 387 617T420 662L443 695Q408 745 399 752Q378 768 326 768Q257 768 220 726T182 615L178
141V63L228 31Q218 31 199 30T170 28Q140 28 91 30Q30 33 13 34Q63 48 63 91V245Q62 348 62 400Q62 410 64 430T66 459V587Q66 662 51 681T19 700Q15 700 11 698Q155 811 368 811Q502 811 549 746Q566 723 596 699Z" />
<glyph unicode="Q" glyph-name="Q" horiz-adv-x="663" d="M651 698Q624 697 615 681T601 596Q598 550 596 504Q590 454 569 381T513 236Q495 198 468 157L456 139Q456 137 457 137Q480 137 573 186Q521 44 526 -51L499 0L487 119L431 103Q419 87 376 45Q329 -1
320 -1Q308 -1 253 66Q203 128 191 151Q145 233 89 397Q64 469 64 671Q42 698 11 698Q72 746 160 778T324 810Q414 810 455 802Q489 795 540 775Q545 772 578 754T614 735Q622 735 651 698ZM477 492Q477 539 469 595Q459 666 443 695Q432 716 407 747Q386 761 348
761Q243 761 207 654Q186 591 186 458Q186 380 199 301Q215 204 245 154Q248 152 253 147Q310 50 323 50Q332 50 358 77Q382 100 390 113Q477 250 477 492Z" />
<glyph unicode="R" glyph-name="R" horiz-adv-x="615" d="M597 274Q597 80 410 -44Q526 105 526 210Q526 342 376 449Q285 514 243 514Q288 566 382 611Q402 621 410 626Q429 637 431 647L443 695Q407 746 405 748Q387 763 337 763Q235 763 204 694Q179 638 178
597L171 191Q169 73 185 50Q189 45 222 28L17 26L50 50L57 63Q58 71 62 94Q65 114 65 125L64 671Q42 698 11 698Q154 810 306 810Q419 810 454 801Q527 781 560 704Q568 677 582 641L572 642Q540 644 480 614L390 569L374 554Q495 523 538 442Q552 418 574 372Q578
361 597 274Z" />
<glyph unicode="S" glyph-name="S" horiz-adv-x="573" d="M561 766L474 637Q469 690 408 718Q360 740 299 740Q191 740 133 685Q165 660 244 623Q328 583 352 566Q424 517 460 483Q514 430 535 371Q539 359 558 273Q558 78 371 -45Q487 104 487 209Q487 277 438
337Q404 379 332 429Q288 460 174 499L17 550V561Q17 560 30 585Q75 677 174 743T375 809Q457 809 561 766Z" />
<glyph unicode="T" glyph-name="T" horiz-adv-x="567" d="M551 610Q550 615 542 622T533 632Q528 643 515 664Q437 766 355 766Q344 766 337 726Q332 697 331 675Q328 221 328 220Q328 103 336 62Q338 51 355 42L383 28H157Q210 44 212 117L218 528Q218 532 221
540T225 554Q225 564 220 558Q219 562 216 628Q214 679 207 691Q203 698 181 720H189Q208 720 234 731L277 751V763Q269 766 255 766Q92 766 14 615Q29 682 48 817L56 824Q60 812 78 805T111 797H422Q427 797 432 802Q435 803 460 803Q480 803 508 831Q516 781
524 703V704V704L526 698L533 675L551 610Z" />
<glyph unicode="U" glyph-name="U" horiz-adv-x="572" d="M551 803Q532 797 519 771T506 723L501 192Q500 52 532 45L546 34H427Q360 34 271 79Q152 138 81 261Q12 379 12 515Q12 596 35 659L57 711Q71 744 71 763Q71 792 54 793L40 803L268 801Q207 772 161 652Q122
548 122 466Q122 338 187 230Q257 114 374 80Q385 91 385 129L384 741Q384 774 344 802H447Q535 803 551 803Z" />
<glyph unicode="V" glyph-name="V" horiz-adv-x="546" d="M528 632Q528 520 432 310L277 -2L180 320Q173 359 159 405Q157 422 148 449Q135 486 133 493L101 631Q80 717 55 762Q49 773 31 782T12 798Q134 802 149 802Q201 802 224 799Q186 785 186 767Q186 742
255 501Q323 264 340 227H341Q345 227 346 229Q379 282 417 383Q460 495 460 543Q460 617 431 677Q397 750 333 765Q334 765 397 797Q449 824 453 824Q463 824 482 794Q528 724 528 632Z" />
<glyph unicode="W" glyph-name="W" horiz-adv-x="769" d="M753 627Q753 518 669 309Q644 248 529 -3L432 320Q424 317 422 313Q407 291 378 223Q339 129 337 126L281 8Q275 22 242 135L160 423L114 599Q81 725 60 762Q54 773 38 783Q19 793 14 799H222Q188 779
188 754Q188 745 252 523L329 250L338 240Q352 250 381 320Q411 387 411 405Q411 414 363 582T308 761T283 782T264 798Q386 802 400 802Q453 802 476 799Q437 785 437 766Q437 742 506 503T591 226H593Q596 226 598 229Q625 273 655 380T685 538Q685 612 656 673Q621
745 558 761L621 793Q674 819 678 819Q688 819 707 790Q753 720 753 627Z" />
<glyph unicode="X" glyph-name="X" horiz-adv-x="581" d="M558 273Q558 211 542 165Q532 137 495 68Q487 54 473 38T444 8Q434 -3 371 -45Q487 104 487 209Q487 309 370 401Q336 427 332 429L304 438Q249 385 185 315Q161 311 124 246Q89 185 89 155T108 102T157
76V75Q157 72 162 72Q165 72 167 74L112 39Q70 13 60 13Q40 13 26 51Q15 82 15 106Q15 217 167 358Q171 361 268 471Q139 573 9 596V607Q9 610 107 776L125 731L220 652L351 555Q414 623 414 684Q414 714 395 737T346 763V764Q346 767 341 767Q338 766 336 765L391
800Q433 826 444 826Q463 826 477 788Q488 757 488 732Q488 690 466 644Q454 620 425 577Q403 544 403 534Q403 532 448 492T499 441Q558 330 558 273Z" />
<glyph unicode="Y" glyph-name="Y" horiz-adv-x="501" d="M329 468V115Q329 76 339 58Q345 46 358 39T375 24Q366 18 291 18Q239 18 160 23L158 32H161Q212 29 212 189Q212 209 211 238T210 274L213 453Q213 467 151 583Q95 686 75 719Q69 728 48 745T17 764L94
798Q96 798 157 826Q162 799 224 684L307 535Q313 524 318 524Q340 524 377 589T414 684T395 737T346 763V764Q346 767 341 767Q338 766 336 765L391 800Q433 826 444 826Q463 826 477 788Q488 757 488 732Q488 675 447 609Q420 566 370 514Q329 471 329 468Z"
/>
<glyph unicode="Z" glyph-name="Z" horiz-adv-x="484" d="M468 800Q327 578 274 485Q173 308 116 151Q115 143 125 143H377Q394 143 422 161T457 194V182Q457 177 396 24H27V35Q27 40 35 64Q44 92 46 95T49 101Q57 127 75 177Q101 246 145 341Q174 402 237 518Q331
671 331 672V685Q300 695 254 695Q180 695 156 693Q90 685 65 657Q66 705 127 828Q156 800 169 800H468Z" />
<glyph unicode="[" glyph-name="bracketleft" horiz-adv-x="1000" />
<glyph unicode="\" glyph-name="backslash" horiz-adv-x="1000" />
<glyph unicode="]" glyph-name="bracketright" horiz-adv-x="1000" />
<glyph unicode="^" glyph-name="asciicircum" horiz-adv-x="1000" />
<glyph unicode="_" glyph-name="underscore" horiz-adv-x="1000" />
<glyph unicode="`" glyph-name="grave" horiz-adv-x="1000" />
<glyph unicode="a" glyph-name="a" horiz-adv-x="452" d="M440 616L438 613Q405 601 404 533L396 114Q394 41 416 32Q422 29 433 21H264L265 27Q310 30 311 175L315 421Q272 422 230 422Q163 421 154 406Q158 429 181 464Q200 457 294 457Q315 457 318 484Q317
479 317 528Q317 564 307 577Q208 574 139 453Q79 348 79 241Q79 113 165 -18Q166 -19 171 -32Q99 16 55 111Q14 200 14 291Q14 376 33 431Q38 446 76 510T114 577Q114 604 78 610L77 616H440Z" />
<glyph unicode="b" glyph-name="b" horiz-adv-x="447" d="M440 242Q440 136 378 90Q335 58 218 35Q149 22 103 23L10 26Q49 37 49 70V418Q50 511 39 525T15 539Q11 539 9 538Q119 625 284 625Q337 625 376 586Q379 583 398 550T417 514V503Q412 504 411 504Q401
504 354 479T302 445Q394 401 423 318L440 242ZM386 193Q386 264 316 326Q259 377 181 403Q182 408 210 427Q254 458 272 472Q303 497 328 525Q313 555 302 564Q287 576 256 576Q207 576 174 549T140 473L137 109Q136 65 145 59Q192 63 281 80Q315 90 349 123Q386
160 386 193Z" />
<glyph unicode="c" glyph-name="c" horiz-adv-x="416" d="M407 628Q401 588 357 515H352Q349 549 322 570T260 591Q190 591 147 498Q112 423 112 344Q112 234 183 136T360 7L365 1Q281 3 196 56Q115 108 71 184L56 217Q50 227 39 247Q13 317 13 414Q13 454 44
520T75 583Q75 594 62 600T36 607V617Q45 617 116 616T236 614Q385 614 407 628Z" />
<glyph unicode="d" glyph-name="d" horiz-adv-x="521" d="M502 404Q502 298 446 209Q400 136 298 79T111 21H8V30Q37 44 44 58Q49 69 50 107L55 449L50 517Q32 538 9 538Q55 575 123 599T249 624Q432 624 502 538Q486 533 481 525Q502 450 502 404ZM405 370Q405
453 378 509Q343 582 269 582Q199 582 171 554T143 455V241L140 63L146 49Q151 43 161 43Q174 43 217 65Q300 107 352 191T405 370Z" />
<glyph unicode="e" glyph-name="e" horiz-adv-x="416" d="M407 628Q401 588 357 515H352Q349 549 322 570T260 591Q194 591 151 505Q133 471 133 468Q133 461 138 459H310Q295 435 266 401Q261 423 216 423Q206 423 189 424T164 425Q112 425 112 371Q112 246 176
147Q244 40 360 7L365 1Q279 3 196 56Q118 107 71 184L56 217Q50 227 39 247Q13 318 13 414Q13 454 44 520T75 583Q75 594 62 600T36 607V617Q45 617 118 616T240 614Q385 614 407 628Z" />
<glyph unicode="f" glyph-name="f" horiz-adv-x="428" d="M418 611Q409 593 390 565Q367 531 361 520L357 521Q338 587 264 587Q206 587 184 556Q166 531 166 472Q166 459 176 458Q280 456 321 460Q314 437 286 397Q287 402 281 410T271 418H171Q164 414 164 396L161
77Q160 57 171 42T201 27V19H31V27Q59 33 67 59Q72 73 72 110T74 218T76 325L74 524Q74 559 58 580Q46 595 13 614L353 613Q367 613 418 618V611Z" />
<glyph unicode="g" glyph-name="g" horiz-adv-x="454" d="M443 447Q433 441 417 427Q405 409 403 325Q404 277 404 229Q404 209 402 160Q401 116 401 91Q401 59 404 48Q410 26 432 22V16L412 12Q379 18 348 18Q221 18 118 139Q19 255 19 385Q19 436 45 504T72
576Q72 598 30 615H40H398Q407 615 438 627Q426 577 372 503V510Q372 539 350 559Q338 568 303 587H258Q254 587 234 578T209 565Q116 500 116 367Q116 276 167 174Q226 57 305 54L307 57Q315 120 315 254V389Q315 410 302 431Q293 436 273 443V453H437L443 447ZM452
17V25V17Z" />
<glyph unicode="h" glyph-name="h" horiz-adv-x="457" d="M447 615L446 611H444Q405 611 405 521L402 66Q402 43 420 32T439 18H271L292 34Q310 51 310 83V421H141V61Q141 50 151 38T172 27L178 18H10L26 29Q48 43 49 88Q55 504 55 493Q55 536 45 583Q43 592 32
601Q16 614 15 615H186L182 610H179Q162 611 151 575Q144 547 144 523V461L316 462Q314 472 314 485Q312 554 311 559Q305 600 276 615H447Z" />
<glyph unicode="i" glyph-name="i" horiz-adv-x="193" d="M183 616Q142 594 142 518L139 67Q139 35 176 19H7L24 29Q46 44 47 88Q53 502 53 486Q53 539 43 584Q41 593 30 602Q13 615 13 616H183Z" />
<glyph unicode="j" glyph-name="j" horiz-adv-x="373" d="M340 108Q340 62 354 50Q327 51 267 24T170 -4Q127 -4 72 27Q10 62 11 100V102Q65 143 104 169Q90 148 90 114Q90 81 114 55T172 28Q250 28 250 121L252 467Q252 481 249 508T246 549Q246 579 237 590Q223
603 208 615H379Q356 603 348 588Q346 574 344 546L340 108Z" />
<glyph unicode="k" glyph-name="k" horiz-adv-x="460" d="M448 210Q448 61 304 -35Q393 80 393 161Q393 227 320 310T182 393Q165 393 153 383T140 356L138 148Q137 63 149 43Q154 34 165 30T176 20H6V27Q38 41 45 61Q50 72 50 114L51 555Q52 580 43 589L15 609L17
613H180V605Q141 598 141 527Q141 523 142 486Q144 461 141 446Q146 441 150 441Q179 441 233 495T287 578Q287 590 277 596T256 607V615L417 616Q388 601 351 562L292 498Q270 483 233 446Q266 446 326 408T403 340Q448 254 448 210Z" />
<glyph unicode="l" glyph-name="l" horiz-adv-x="398" d="M381 146Q381 132 312 -2H302L307 1Q303 8 293 17Q274 25 142 27H7Q56 43 57 125Q62 470 62 479Q62 586 39 600Q31 604 18 616H191Q150 591 149 525L144 156Q143 107 155 84Q171 52 216 52Q264 52 310
84Q352 111 381 155V146Z" />
<glyph unicode="m" glyph-name="m" horiz-adv-x="514" d="M502 615L501 609Q461 606 460 517L455 110Q454 83 459 61Q467 25 486 28L491 23H323Q350 44 355 51Q365 64 365 93L373 465Q373 482 368 506Q361 506 301 419L229 316L108 506L100 501V493Q100 477 97
447T94 401Q90 93 90 113Q90 34 122 33V26H20Q29 29 45 41Q58 56 59 119Q65 529 65 521Q65 571 28 571Q19 571 7 569Q38 593 131 632L259 437H266Q327 514 377 610Q380 616 385 616Q396 616 443 615H502Z" />
<glyph unicode="n" glyph-name="n" horiz-adv-x="438" d="M426 607Q387 601 387 566V273Q387 193 362 119Q333 33 279 -10Q347 96 347 213Q347 305 282 388Q221 465 131 502Q123 507 108 512L99 506Q92 412 92 117Q92 68 103 47Q105 42 116 36T128 26H23Q37 31
54 50Q61 72 62 143V242L65 511Q66 527 46 534Q33 538 14 537Q78 626 95 628Q194 581 234 554Q295 512 346 441H354V550Q354 559 345 591Q341 595 321 607L323 614H422L426 607Z" />
<glyph unicode="o" glyph-name="o" horiz-adv-x="515" d="M502 538Q478 533 473 524T464 460Q461 424 459 388Q439 228 332 79Q323 67 290 35Q253 -1 246 -1Q237 -1 195 51Q157 99 147 116Q95 210 74 311Q62 370 50 517Q32 538 9 538Q55 575 123 599T249 624Q432
624 502 538ZM367 400Q367 379 369 377Q374 377 372 439Q370 506 355 532Q351 542 334 569Q297 590 260 590Q174 590 150 535Q140 486 140 434Q140 416 141 382T143 331Q143 200 201 99Q235 39 249 39Q255 39 275 58T300 87Q367 192 367 400Z" />
<glyph unicode="p" glyph-name="p" horiz-adv-x="465" d="M459 538Q415 488 321 428Q314 424 247 398T169 370L246 428Q321 484 323 510L341 535Q332 548 321 569Q299 592 251 592Q198 592 170 560T140 473L137 49L176 24Q168 24 153 23T130 21Q108 21 70 23Q23
25 10 26Q49 37 49 70Q49 117 50 211T51 354V451Q51 510 39 524T15 539Q11 539 9 538Q119 624 283 624Q387 624 423 574Q436 556 459 538Z" />
<glyph unicode="q" glyph-name="q" horiz-adv-x="511" d="M502 538Q478 532 473 525Q466 513 463 459L459 388Q454 350 438 294T395 182Q381 152 361 121L351 107Q351 106 352 106Q369 106 441 143Q401 34 405 -39L384 0L375 92L332 79Q323 67 289 35Q253 -1 246
-1Q237 -1 195 51Q157 99 147 116Q92 214 70 310Q50 398 50 517Q32 538 9 538Q55 575 123 599T249 624Q432 624 502 538ZM367 379Q367 396 361 449Q355 508 350 517Q335 548 331 555Q318 575 303 580T268 586Q187 586 159 503Q143 455 143 352Q143 218 189 118L195
113Q198 102 219 71T249 39Q255 39 275 58T300 87Q367 192 367 379Z" />
<glyph unicode="r" glyph-name="r" horiz-adv-x="474" d="M460 211Q460 62 316 -34Q405 81 405 162Q405 263 290 346Q220 396 187 396Q198 409 267 453Q331 495 332 498L341 535Q332 548 321 569Q302 588 259 588Q139 588 137 460L132 147Q130 56 143 39Q146 34
171 22L13 20Q22 26 39 39L44 49Q44 55 47 73Q50 88 50 96V517Q32 538 9 538Q118 624 235 624Q342 624 372 609Q417 586 448 494H440Q416 496 370 473L300 438L288 427Q403 397 442 287L460 211Z" />
<glyph unicode="s" glyph-name="s" horiz-adv-x="441" d="M432 590L365 491Q361 531 314 553Q277 570 231 570Q147 570 103 527Q133 503 213 463T330 395Q390 349 412 285L430 210Q430 60 286 -35Q375 80 375 161Q375 236 306 293Q254 337 157 375L13 424V432Q13
431 23 451Q58 521 134 572T289 623Q352 623 432 590Z" />
<glyph unicode="t" glyph-name="t" horiz-adv-x="437" d="M424 470L410 487Q343 590 274 590Q265 590 259 559Q255 536 255 520Q252 170 252 169Q252 79 258 48Q260 40 274 32L295 21H121Q162 34 163 90L168 406Q168 410 170 416T173 426Q173 434 169 430Q168
463 166 497T139 555L142 554Q159 554 213 579V588Q207 590 196 590Q71 590 11 474Q23 525 37 629L43 634Q50 613 85 613H325Q332 613 332 618H354Q370 618 391 640Q397 605 404 541L403 542H404L405 538L410 520L424 470Z" />
<glyph unicode="u" glyph-name="u" horiz-adv-x="440" d="M424 618Q410 614 400 594T389 557L386 148Q385 40 410 35L421 26H329Q277 26 209 61Q117 107 62 201Q9 292 9 397Q9 459 27 508L44 547Q55 573 55 587Q55 610 42 610L31 618L206 617Q159 594 124 502Q94
422 94 359Q94 260 144 177Q198 88 288 61Q296 70 296 100V571Q296 596 265 617Q368 617 424 618Z" />
<glyph unicode="v" glyph-name="v" horiz-adv-x="420" d="M407 487Q407 400 333 239L213 -2L139 246L94 423Q61 555 43 587Q38 595 24 602T10 615Q103 618 115 618Q154 618 173 615Q143 605 143 590Q143 569 195 388T262 175L267 177L321 296Q354 375 354 418Q354
475 332 521Q306 578 257 589L305 614Q345 634 349 634Q372 634 391 572Q407 519 407 487Z" />
<glyph unicode="w" glyph-name="w" horiz-adv-x="592" d="M580 483Q580 399 515 238Q496 191 407 -2L333 246L325 241L216 6Q192 68 166 165L123 326L88 462Q62 562 46 587Q41 595 28 603T11 615H171Q145 600 145 581Q145 572 194 401Q249 210 253 192L260 185Q271
193 293 245T316 312Q316 320 279 448T237 586T218 602T203 614Q297 618 308 618Q349 618 366 615Q337 605 337 590Q337 569 389 388T455 174L460 177Q527 325 527 415Q527 471 505 518Q478 574 430 586L478 610Q518 631 522 631Q545 631 564 568Q580 516 580 483Z"
/>
<glyph unicode="x" glyph-name="x" horiz-adv-x="447" d="M430 210Q430 61 286 -35Q375 80 375 161Q375 212 329 269T234 337Q192 296 143 242Q123 238 96 191T69 119Q69 96 84 78T121 59L124 56L129 57Q59 10 46 10Q31 10 20 39Q12 63 12 82Q12 137 51 189L129
276L206 363Q107 441 7 459V467Q7 470 82 598L96 563L169 502L270 427Q319 479 319 527Q319 550 304 567T266 587L263 590L259 589Q329 636 342 636Q356 636 367 607Q376 583 376 564Q376 519 343 468T310 409Q310 408 311 407Q315 403 350 376Q376 356 384 340Q430
255 430 210Z" />
<glyph unicode="y" glyph-name="y" horiz-adv-x="386" d="M253 361V89Q253 59 261 44Q266 36 276 31T289 19L279 15L224 14Q190 14 123 18L122 25L125 24Q163 23 163 147Q163 162 162 185V211L164 349Q164 360 116 449Q73 531 57 554Q53 561 37 573T13 588Q31
597 73 615Q74 615 121 636Q124 618 179 515T245 403Q264 406 291 455T319 527T304 567T266 587L263 590L259 589Q329 636 342 636Q356 636 367 607Q376 583 376 564Q376 522 351 478Q335 450 303 417Q266 381 259 370L253 361Z" />
<glyph unicode="z" glyph-name="z" horiz-adv-x="373" d="M360 616Q252 445 211 373Q133 237 89 117Q89 110 96 110H290Q303 110 325 124T352 150V140Q352 137 305 18H21V27Q21 31 27 49Q34 71 34 74L38 78Q84 240 182 399L225 463Q256 512 255 527Q231 535 196
535Q138 535 120 533Q69 528 50 506Q51 543 98 637Q120 616 130 616H360Z" />
<glyph unicode="{" glyph-name="braceleft" horiz-adv-x="770" />
<glyph unicode="|" glyph-name="bar" horiz-adv-x="770" />
<glyph unicode="}" glyph-name="braceright" horiz-adv-x="770" />
<glyph unicode="~" glyph-name="asciitilde" horiz-adv-x="770" />
</font>
</defs>
</svg>
